<svg width="25" height="24" viewBox="0 0 25 24" fill="none" xmlns="http://www.w3.org/2000/svg">
<path d="M24.02 12.2727C24.02 11.4218 23.9436 10.6036 23.8018 9.81818H12.5V14.4654H18.9582C18.6745 15.96 17.8236 17.2254 16.5473 18.0764V21.0982H20.4418C22.7109 19.0036 24.02 15.9273 24.02 12.2727Z" fill="#4285F4"/>
<path d="M12.5 24C15.74 24 18.4564 22.9309 20.4418 21.0982L16.5473 18.0764C15.4782 18.7964 14.1146 19.2327 12.5 19.2327C9.38002 19.2327 6.72911 17.1273 5.78002 14.2909H1.78729V17.3891C3.76184 21.3055 7.80911 24 12.5 24Z" fill="#34A853"/>
<path d="M5.78 14.28C5.54 13.56 5.39818 12.7964 5.39818 12C5.39818 11.2036 5.54 10.44 5.78 9.72001V6.62183H1.78727C0.969091 8.23637 0.5 10.0582 0.5 12C0.5 13.9418 0.969091 15.7636 1.78727 17.3782L4.89636 14.9564L5.78 14.28Z" fill="#FBBC05"/>
<path d="M12.5 4.77818C14.2673 4.77818 15.8382 5.38909 17.0927 6.56727L20.5291 3.13091C18.4455 1.18909 15.74 0 12.5 0C7.80911 0 3.76184 2.69454 1.78729 6.62182L5.78002 9.72C6.72911 6.88363 9.38002 4.77818 12.5 4.77818Z" fill="#EA4335"/>
</svg>
